<mxfile host="65bd71144e">
    <diagram id="fxmZWCBiA8xAeqEsIjBk" name="Page-1">
        <mxGraphModel dx="534" dy="627" grid="1" gridSize="10" guides="1" tooltips="1" connect="1" arrows="1" fold="1" page="1" pageScale="1" pageWidth="850" pageHeight="1100" math="0" shadow="0">
            <root>
                <mxCell id="0"/>
                <mxCell id="1" parent="0"/>
                <mxCell id="3" value="Containerization" style="text;html=1;strokeColor=none;fillColor=none;align=center;verticalAlign=middle;whiteSpace=wrap;rounded=0;fontSize=16;fontStyle=1" vertex="1" parent="1">
                    <mxGeometry x="310" y="460" width="230" height="30" as="geometry"/>
                </mxCell>
                <mxCell id="4" value="Virtualization" style="text;html=1;strokeColor=none;fillColor=none;align=center;verticalAlign=middle;whiteSpace=wrap;rounded=0;fontSize=16;fontStyle=1" vertex="1" parent="1">
                    <mxGeometry x="40" y="460" width="230" height="30" as="geometry"/>
                </mxCell>
                <mxCell id="27" value="OS" style="rounded=0;whiteSpace=wrap;html=1;horizontal=1;verticalAlign=top;fontSize=14;fontStyle=1;fillColor=#f5f5f5;fontColor=#333333;strokeColor=#666666;" vertex="1" parent="1">
                    <mxGeometry x="40" y="260" width="230" height="140" as="geometry"/>
                </mxCell>
                <mxCell id="29" value="Kernel" style="rounded=0;whiteSpace=wrap;html=1;horizontal=1;verticalAlign=middle;fontSize=14;fontStyle=1" vertex="1" parent="1">
                    <mxGeometry x="50" y="350" width="210" height="40" as="geometry"/>
                </mxCell>
                <mxCell id="30" value="Hardware" style="rounded=0;whiteSpace=wrap;html=1;horizontal=1;verticalAlign=middle;fontSize=14;fontStyle=1" vertex="1" parent="1">
                    <mxGeometry x="40" y="410" width="230" height="40" as="geometry"/>
                </mxCell>
                <mxCell id="31" value="" style="sketch=0;pointerEvents=1;shadow=0;dashed=0;html=1;strokeColor=none;fillColor=#434445;aspect=fixed;labelPosition=center;verticalLabelPosition=bottom;verticalAlign=top;align=center;outlineConnect=0;shape=mxgraph.vvd.cpu;" vertex="1" parent="1">
                    <mxGeometry x="50" y="415" width="30" height="30" as="geometry"/>
                </mxCell>
                <mxCell id="32" value="" style="sketch=0;pointerEvents=1;shadow=0;dashed=0;html=1;strokeColor=none;fillColor=#505050;labelPosition=center;verticalLabelPosition=bottom;verticalAlign=top;outlineConnect=0;align=center;shape=mxgraph.office.devices.hard_disk;" vertex="1" parent="1">
                    <mxGeometry x="240" y="415" width="20" height="30" as="geometry"/>
                </mxCell>
                <mxCell id="33" value="Applications Layer" style="rounded=0;whiteSpace=wrap;html=1;horizontal=1;verticalAlign=middle;fontSize=14;fontStyle=1" vertex="1" parent="1">
                    <mxGeometry x="50" y="300" width="210" height="40" as="geometry"/>
                </mxCell>
                <mxCell id="34" value="OS" style="rounded=0;whiteSpace=wrap;html=1;horizontal=1;verticalAlign=top;fontSize=14;fontStyle=1;fillColor=#f5f5f5;fontColor=#333333;strokeColor=#666666;" vertex="1" parent="1">
                    <mxGeometry x="320" y="260" width="230" height="140" as="geometry"/>
                </mxCell>
                <mxCell id="36" value="Kernel" style="rounded=0;whiteSpace=wrap;html=1;horizontal=1;verticalAlign=middle;fontSize=14;fontStyle=1" vertex="1" parent="1">
                    <mxGeometry x="330" y="350" width="210" height="40" as="geometry"/>
                </mxCell>
                <mxCell id="37" value="Hardware" style="rounded=0;whiteSpace=wrap;html=1;horizontal=1;verticalAlign=middle;fontSize=14;fontStyle=1" vertex="1" parent="1">
                    <mxGeometry x="320" y="410" width="230" height="40" as="geometry"/>
                </mxCell>
                <mxCell id="38" value="" style="sketch=0;pointerEvents=1;shadow=0;dashed=0;html=1;strokeColor=none;fillColor=#434445;aspect=fixed;labelPosition=center;verticalLabelPosition=bottom;verticalAlign=top;align=center;outlineConnect=0;shape=mxgraph.vvd.cpu;" vertex="1" parent="1">
                    <mxGeometry x="330" y="415" width="30" height="30" as="geometry"/>
                </mxCell>
                <mxCell id="39" value="" style="sketch=0;pointerEvents=1;shadow=0;dashed=0;html=1;strokeColor=none;fillColor=#505050;labelPosition=center;verticalLabelPosition=bottom;verticalAlign=top;outlineConnect=0;align=center;shape=mxgraph.office.devices.hard_disk;" vertex="1" parent="1">
                    <mxGeometry x="520" y="415" width="20" height="30" as="geometry"/>
                </mxCell>
                <mxCell id="40" value="Applications Layer" style="rounded=0;whiteSpace=wrap;html=1;horizontal=1;verticalAlign=middle;fontSize=14;fontStyle=1" vertex="1" parent="1">
                    <mxGeometry x="330" y="300" width="210" height="40" as="geometry"/>
                </mxCell>
                <mxCell id="41" value="" style="rounded=0;whiteSpace=wrap;html=1;fillColor=none;strokeWidth=4;strokeColor=#FF8000;" vertex="1" parent="1">
                    <mxGeometry x="310" y="295" width="250" height="50" as="geometry"/>
                </mxCell>
                <mxCell id="42" value="" style="rounded=0;whiteSpace=wrap;html=1;fillColor=none;strokeWidth=4;strokeColor=#FF8000;" vertex="1" parent="1">
                    <mxGeometry x="30" y="295" width="250" height="100" as="geometry"/>
                </mxCell>
            </root>
        </mxGraphModel>
    </diagram>
</mxfile>
